<svg id="Lag_1" data-name="Lag 1" xmlns="http://www.w3.org/2000/svg" viewBox="0 0 128 128"><title>Arrow Up</title><path d="M1.29,82.68A3.81,3.81,0,0,0,.27,87a4.41,4.41,0,0,0,1,2.31c4.87,5.81,5.75,7.16,11.1,12.53,2.3,2.32,5.34,1.17,6.67-1C32.44,89.58,51.34,69.68,64.73,58.45c12.79,12.74,31.53,29.25,44.8,41.47a4.12,4.12,0,0,0,4.68.77,5.08,5.08,0,0,0,3.53-2.12c4.32-5.59,3.22-3.92,8-9.15,2.16-1.32,3.35-4.4,1-6.74C108.36,64,87.63,47.6,71.15,27.08a4,4,0,0,0-1.47-1.18,4.19,4.19,0,0,0-5.6.22C43.41,45.26,21.52,63.05,1.29,82.68Z"/></svg>