<svg id="Lag_1" data-name="Lag 1" xmlns="http://www.w3.org/2000/svg" viewBox="0 0 128 128"><title>Arrow Down</title><path d="M126.71,45.32a3.81,3.81,0,0,0,1-4.27,4.41,4.41,0,0,0-1-2.31c-4.87-5.81-5.75-7.16-11.1-12.53-2.3-2.32-5.34-1.17-6.67,1C95.56,38.42,76.66,58.32,63.27,69.55,50.48,56.81,31.74,40.3,18.47,28.08a4.12,4.12,0,0,0-4.68-.77,5.08,5.08,0,0,0-3.53,2.12C5.94,35,7,33.35,2.3,38.58.14,39.9-1,43,1.25,45.32,19.64,64,40.37,80.4,56.85,100.92a4,4,0,0,0,1.47,1.18,4.19,4.19,0,0,0,5.6-.22C84.59,82.74,106.48,65,126.71,45.32Z"/></svg>