<svg id="Lag_1" data-name="Lag 1" xmlns="http://www.w3.org/2000/svg" viewBox="0 0 128 128"><title>Arrow Left</title><path d="M82.68,126.71a3.81,3.81,0,0,0,4.27,1,4.41,4.41,0,0,0,2.31-1c5.81-4.87,7.16-5.75,12.53-11.1,2.32-2.3,1.17-5.34-1-6.67C89.58,95.56,69.68,76.66,58.45,63.27,71.19,50.48,87.7,31.74,99.92,18.47a4.12,4.12,0,0,0,.77-4.68,5.08,5.08,0,0,0-2.12-3.53C93,5.94,94.65,7,89.42,2.3,88.1.14,85-1,82.68,1.25,64,19.64,47.6,40.37,27.08,56.85a4,4,0,0,0-1.18,1.47,4.19,4.19,0,0,0,.22,5.6C45.26,84.59,63.05,106.48,82.68,126.71Z"/></svg>