<svg id="Lag_1" data-name="Lag 1" xmlns="http://www.w3.org/2000/svg" viewBox="0 0 128 128"><title>Arrow Right</title><path d="M45.32,1.29a3.81,3.81,0,0,0-4.27-1,4.41,4.41,0,0,0-2.31,1C32.93,6.16,31.58,7,26.21,12.39c-2.32,2.3-1.17,5.34,1,6.67C38.42,32.44,58.32,51.34,69.55,64.73,56.81,77.52,40.3,96.26,28.08,109.53a4.12,4.12,0,0,0-.77,4.68,5.08,5.08,0,0,0,2.12,3.53c5.59,4.32,3.92,3.22,9.15,8,1.32,2.16,4.4,3.35,6.74,1C64,108.36,80.4,87.63,100.92,71.15a4,4,0,0,0,1.18-1.47,4.19,4.19,0,0,0-.22-5.6C82.74,43.41,65,21.52,45.32,1.29Z"/></svg>