<svg id="Lag_1" data-name="Lag 1" xmlns="http://www.w3.org/2000/svg" viewBox="0 0 128 128"><title>Booster</title><path d="M40,23.62a2.86,2.86,0,0,1-.15.41C34,37.42,28.5,51,22.94,64.52a2.83,2.83,0,0,0,1.72,4,3.1,3.1,0,0,0,2.58,1c4.57-.25,9.15-.36,13.73-.41A3.77,3.77,0,0,1,44.59,74c-5.24,16.56-12,32.6-17.67,49-.85,2.47,1,4.12,3,4.3a3.73,3.73,0,0,1,1.35.38,3,3,0,0,0,3.75-.79c22.66-25.12,41.63-53.15,62.12-80,1.77-2.31-.1-4.58-2.39-5a3.59,3.59,0,0,0-1.56-.34h-7.3a3.75,3.75,0,0,1-3-6c7.33-10.07,14.73-20.09,21.82-30.34,1.9-2.74-.84-5.35-3.47-5.13A3.91,3.91,0,0,0,99.82,0c-3.5.48-38.27.51-49,.45-1.65,0-3.25,2.16-3.74,3.74C45.18,10.31,40.54,21.85,40,23.62Z"/></svg>