<svg id="Lag_1" data-name="Lag 1" xmlns="http://www.w3.org/2000/svg" viewBox="0 0 128.01 128"><defs><style>.cls-1{fill:#fff;}</style></defs><title>Chat V2</title><path d="M82.05,82.68v7.59a3.41,3.41,0,0,1-.37,1.58c-.31,2.47-1.14,5.05-3.15,6.69a11.62,11.62,0,0,1-7.41,2.66,2.25,2.25,0,0,1-.38,0c-.11,0-.2,0-.31,0H46.54a248,248,0,0,0-18.11,18.14c-1.7,1.88-4,1.08-5.1-.56a2.88,2.88,0,0,1-.61-3.11,120.27,120.27,0,0,0,3.9-13.92c-8.07.32-19.12,2-23.37-6.68a3.41,3.41,0,0,1-.36-1.71,3.1,3.1,0,0,1-.11-.7C2.08,78.57,1.11,64.5.42,50.41c-.63-2.8-.75-6.21,1.05-8.61,4.09-5.43,11-4.85,17.1-4.81,5.67,0,11.35.11,17,.32a3.24,3.24,0,0,1,2.48,1.17q-.11,3-.17,6.08c-.09,4.37-.12,8.8-.08,13.17,0,.7,0,1.4,0,2.11C37.74,64,37.67,69.17,40.58,74c3.46,5.75,9.16,7.45,13.73,8.29a9.37,9.37,0,0,0,1.43.14h.56l.67,0c7.28-.66,14.93-1.05,22.76-1.15l.08,0,.25.16C80.72,81.89,81.38,82.29,82.05,82.68Z"/><path d="M103.34,8.12c3.83,0,7.66,0,11.48-.15C111,8.07,107.17,8.12,103.34,8.12Z"/><path d="M128,57.42c-.11,5.38,0,12.15-4.91,15.71a8.85,8.85,0,0,1-3,1.41q-.39.1-.78.18h0c-.26,0-.53.09-.8.12l-.81.07-.83,0a19.55,19.55,0,0,1-2.29-.14,3,3,0,0,1-.52.06h-3.2L115,85.62a2.62,2.62,0,0,1,.28.9,2.81,2.81,0,0,1-.84,2.83,3.69,3.69,0,0,1-4.63,1.12A296.31,296.31,0,0,1,83.18,76.36l-.14-.1c-.58-.32-1.17-.65-1.74-1-2.21,0-4.42,0-6.62.11q-9.15.25-18.27,1.08H56a5,5,0,0,1-.57,0c-3.9-.72-7.51-1.9-9.66-5.49-2.44-4-1.88-8.74-1.92-13.24,0-3.74,0-7.5,0-11.24l0-1.76Q44.16,32,45.13,19.25c0-.14,0-.26.07-.39a4.52,4.52,0,0,1,.06-1c1.17-6.68,6.67-10.22,13.16-10.32h0l.21,0,.19,0H75.75c.11,0,.21,0,.32,0l7,.2c3.28.09,6.57.17,9.85.23,3.48.05,7,.09,10.44.09,3.83,0,7.66,0,11.48-.15h0l.27,0,.38,0h.14c3.07.29,6.55,1.1,8.62,3.61,2.26,2.73,2.65,5.82,2.77,9.24l0,.86c.14,4.22.32,8.45.49,12.67C127.85,42,128.11,49.73,128,57.42Z"/><path class="cls-1" d="M103.34,8.12c3.83,0,7.66,0,11.48-.15C111,8.07,107.17,8.12,103.34,8.12Z"/></svg>