<svg id="Lag_1" data-name="Lag 1" xmlns="http://www.w3.org/2000/svg" viewBox="0 0 128.01 128"><title>Chat</title><path d="M126.55,22.15c0-.44,0-.87,0-1.31-.18-5.19-.78-9.88-4.21-14-3.14-3.82-8.44-5.06-13.1-5.49a4.29,4.29,0,0,0-.8,0c-.14,0-.27,0-.43,0-19.64.53-39.26,0-58.89-.56a4.07,4.07,0,0,0-.49-.05H22.87l-.28,0c-.11,0-.21,0-.33,0C12.38.87,4,6.23,2.25,16.39a7.31,7.31,0,0,0-.09,1.47c0,.2-.09.39-.11.6Q.58,37.77.17,57.11,0,67,.05,76.86C.1,83.7-.74,90.84,3,97c3.28,5.45,8.76,7.25,14.69,8.33a4.85,4.85,0,0,0,.87.08h.12c.19,0,.36,0,.56,0,12.58-1.15,25.19-1.72,37.82-1.81.88.52,1.76,1,2.66,1.5.08.06.13.12.21.17a450.66,450.66,0,0,0,40.41,21.42,5.64,5.64,0,0,0,7-1.69,4.27,4.27,0,0,0,1.28-4.3,3.91,3.91,0,0,0-.43-1.37L101.89,103h4.86a6.6,6.6,0,0,0,.79-.08c4.5.5,9.12.26,12.93-2.53,7.37-5.41,7.29-15.71,7.46-23.88.24-11.68-.16-23.39-.63-35.06C127.05,35,126.77,28.57,126.55,22.15Z"/></svg>