<svg id="Lag_1" data-name="Lag 1" xmlns="http://www.w3.org/2000/svg" viewBox="0 0 128 128"><title>Doner</title><path d="M124.88,24.57C120.16,14.79,110.54,9,99.15,9a31.81,31.81,0,0,0-3.24.16c-11.09,1.13-21.2,8.75-28.56,21.47C58.81,16.35,44.69,7.2,31.11,7.2a30.42,30.42,0,0,0-8.79,1.3c-8.79,2.67-16,10.06-19.67,20.32-4.11,11.35-3.4,24.65,1.84,34.7C11.7,77.33,24.05,85.76,36,93.92c6.14,4.19,12.49,8.51,17.93,13.47a57.68,57.68,0,0,1,5.4,5.49c3,3.79,5.24,8.19,5.42,7.9,0,.19,5.73-6.26,5.68-6.39C76,108.65,82.14,103.31,88,98.15c10.17-8.88,20.68-18.07,29.05-29.61C121.17,62.89,133.8,43.05,124.88,24.57Z"/></svg>