<svg id="Lag_1" data-name="Lag 1" xmlns="http://www.w3.org/2000/svg" viewBox="0 0 128 128"><defs><style>.cls-1{fill:none;}</style></defs><title>Facebook</title><path d="M123,120.74a3.27,3.27,0,0,1-1.66,2.9,3.32,3.32,0,0,1-2.78,1.55c-22.63.89-35.45.49-58.09.47a3.44,3.44,0,0,1-1.49-.31,3.4,3.4,0,0,1-2.49-3.2c-.05-1-.16-2-.32-3.14-.2-1.35-.68-9-.68-15s-.05-11.78-.6-18.61c3.76-.77,7.36-.84,10.66-2.83a3.27,3.27,0,0,0,1.66-2.7,4,4,0,0,0,.08-.8V68.3a3.33,3.33,0,0,0-3.54-3.39,3.71,3.71,0,0,0-.91-.12H54.19C51,51.16,52.82,35.55,70.29,36.22a3.06,3.06,0,0,0,3.23-2.28,3.2,3.2,0,0,0,1.22-2.63V20.54a3.32,3.32,0,0,0-3.56-3.39C54.9,14.39,38.67,20.11,32.25,36a3.08,3.08,0,0,0-.16,2,164.54,164.54,0,0,0,.16,28.77c-3.16.2-7.72.72-10.65,1.9a3.63,3.63,0,0,0-2.53,3.9,4.51,4.51,0,0,0,.07.89c.52,2.64,1,6.7,1.41,9.36a3.46,3.46,0,0,0,3.66,2.56l.19,0c2.27,0,5.94,0,8.19.15L33.45,101l-.29,19-.54,3.06A3.2,3.2,0,0,1,31,126a3.22,3.22,0,0,1-2.86,1.55c-6.4,0-8.6.44-15,.47a3.16,3.16,0,0,1-2.62-1.18,2.74,2.74,0,0,1-1.71-2.33C3.28,85,5,44.35,5,4.62a3.18,3.18,0,0,1,2-3.1A3.12,3.12,0,0,1,9.42.64c33.4,1.28,76.63-1.31,110-.47a3.58,3.58,0,0,1,3,5.23s0,.1,0,.16C122.53,44,123.85,82.35,123,120.74Z"/><line class="cls-1" x1="33.41" y1="118.57" x2="33.16" y2="120.02"/></svg>