<svg id="Lag_1" data-name="Lag 1" xmlns="http://www.w3.org/2000/svg" viewBox="0 0 128 128"><title>Følger</title><path d="M44.79,48.14A27.53,27.53,0,0,1,34.34,16a22.44,22.44,0,0,0-12.88,5,2.29,2.29,0,0,0-.47.46c-.31.4-1.32,1.77-2.2,3.08C13,33,14.57,42.82,22.5,48.44a20.43,20.43,0,0,0,5.31,2.73l.57-.19a9.59,9.59,0,0,1,2.75-.41h.2c3.81-.4,7.72-.71,11.85-1a19.62,19.62,0,0,0,2-1.24Z"/><path d="M9.91,58.44a2.54,2.54,0,0,0-1,.1,12.74,12.74,0,0,0-8,6.84,3.37,3.37,0,0,0-.27,1,2.48,2.48,0,0,0-.27,1.1c-.23,11.71-.72,23.4,0,35.11a2.38,2.38,0,0,0,1.32,2,2.13,2.13,0,0,0,1.51.57c3,0,6.08,0,9.13-.08-.2-9.56,0-19.09.24-28.39q.11-4.12.19-8.23a9.39,9.39,0,0,1,.57-3.08,10,10,0,0,1,.68-2,21.5,21.5,0,0,1,3.65-5.58C15.07,58,12.49,58.16,9.91,58.44Z"/><path d="M108.4,22.15c-1.2-1.41-2.25-2.59-2.63-3a3,3,0,0,0-.69-.48A23,23,0,0,0,94.58,16h-.24c1.91,7.26.91,15.19-3.08,22.73a10.44,10.44,0,0,1-1.15,1.71c-.55.67-2.22,2.46-3.77,4a35.87,35.87,0,0,1-4.68,3.84,2,2,0,0,0,.23.18c.37.26.74.51,1.12.74.67,0,1.33,0,1.94,0l.79,0,.64,0h.21c1.09,0,2.17,0,3.28,0h1.78c.92,0,2,0,3.12.11a18.6,18.6,0,0,1,3.27.55,18.91,18.91,0,0,1,2.62.82,22,22,0,0,0,6.65-4.48c1.09-1,2.22-2.27,2.52-2.63a2.92,2.92,0,0,0,.34-.52C114.05,35.61,113.4,28,108.4,22.15Z"/><path d="M127.44,80.8c0-1.19-.07-2.38-.1-3.58,0-.53,0-1,0-1.58,0-.21,0-.42,0-.63l0-.63c0-.7,0-1.4-.08-2.09,0-.21,0-.42,0-.63s0-.43-.05-.63c0-.54-.06-1.08-.11-1.61,0-.2,0-.41-.08-.62a23.74,23.74,0,0,0-.46-3c0-.24-.13-.48-.19-.72a13,13,0,0,0-.65-1.84,9,9,0,0,0-1.3-2.1,9.34,9.34,0,0,0-1.06-1c-.21-.16-.41-.33-.64-.49s-.41-.28-.63-.41a14.1,14.1,0,0,0-3.8-1.59,9.71,9.71,0,0,0-1.7-.28c-.69,0-1.39-.07-2.09-.08h-1.27l-2.34,0-.61,0A18.42,18.42,0,0,1,112,60.56a21.69,21.69,0,0,1,1.18,3.32l.06.22c.1.34.19.68.27,1a40.85,40.85,0,0,1,.73,4.68l0,.24c0,.22,0,.43.07.61.06.58.1,1.16.13,1.73l0,.61,0,.29c0,.2,0,.39,0,.59s0,.17,0,.26,0,.41,0,.6c0,.85.08,1.7.11,2.55v.36l0,.31c0,.19,0,.38,0,.57v.84l.06,2.14V82c0,1.4.06,2.81.12,4.24l.18,5.86c.16,4.8.32,9.71.43,14.63,2.71-.09,5.41-.1,8.12-.11a2.21,2.21,0,0,0,1.42-.48,2.37,2.37,0,0,0,2.86-2.34C128,96.1,127.67,88.46,127.44,80.8Z"/><path d="M86,35.91a3.94,3.94,0,0,1-.46.69c-.4.48-1.91,2.11-3.35,3.51a30.15,30.15,0,0,1-4.76,3.78A26.19,26.19,0,0,1,63.21,48.2a25.51,25.51,0,0,1-13.47-4c-.5-.31-1-.64-1.48-1-9-6.35-11.79-16.71-7.78-26.56a27.92,27.92,0,0,1,2.83-5.24c1.18-1.74,2.52-3.57,2.93-4.1a3.44,3.44,0,0,1,.64-.62C52.64,2.27,58.8,0,65.18,0a30.61,30.61,0,0,1,14,3.61,3.89,3.89,0,0,1,.91.64c.51.49,1.91,2.07,3.5,3.94A23.91,23.91,0,0,1,88.41,17C90.16,22.94,89.36,29.5,86,35.91Z"/><path d="M109.74,117a3.09,3.09,0,0,1-3.26,3.16,3.52,3.52,0,0,1-.56,0,2.86,2.86,0,0,1-1.88.65c-5,0-10,0-15,.3,0,.76,0,1.49,0,2.18a3.44,3.44,0,0,1,.28,2.82,2.94,2.94,0,0,1-.23.51,2.76,2.76,0,0,1-2.52,1.4c-8.74,0-15-.1-21.2-.19s-12.47-.18-21.2-.19a2.77,2.77,0,0,1-2.75-1.9,3.28,3.28,0,0,1-.34-1.49c0-1.66,0-3.58,0-5.65-6.17.28-12.35.31-18.53.31a2.84,2.84,0,0,1-2-.76,3.17,3.17,0,0,1-1.75-2.74c-.08-1.28-.14-2.55-.2-3.83-.66-14.32-.08-28.65.2-43a3.28,3.28,0,0,1,.35-1.46,5,5,0,0,1,.36-1.28,16.74,16.74,0,0,1,9.1-8.55,14.72,14.72,0,0,1,1.57-.57,3.27,3.27,0,0,1,1-.15,2,2,0,0,1,.35,0c5.37-.57,10.76-1,16.16-1.19,4.39-.2,6.7-.31,8.83-.36.61,0,1.2,0,1.82,0h1.63c1.64,0,3.64,0,6.57,0l7.17.07,7.25.08h.66c1.16,0,2.32,0,3.49-.05l.84,0,.84,0c1,0,2.08,0,3.13,0h.85l.83,0c.94,0,1.87,0,2.8.1a13.86,13.86,0,0,1,2.26.38,17.91,17.91,0,0,1,3.17,1.12,14.4,14.4,0,0,1,1.3.66c.2.11.4.22.59.34s.58.36.85.55.57.43.84.65a10.81,10.81,0,0,1,1.42,1.35,12.13,12.13,0,0,1,1.74,2.8,18.06,18.06,0,0,1,.86,2.44c.08.32.18.65.26,1a36.54,36.54,0,0,1,.62,4c0,.28.06.55.09.82.07.71.11,1.43.16,2.15,0,.27,0,.56.06.84s.05.56.06.84c.05.93.08,1.86.12,2.79l0,.84c0,.28,0,.56,0,.84l.06,2.11c0,1.59.07,3.18.13,4.77.27,8.54.59,17.06.7,25.6C109.72,113.67,109.74,115.35,109.74,117Z"/></svg>