<svg id="Lag_1" data-name="Lag 1" xmlns="http://www.w3.org/2000/svg" viewBox="0 0 128 128"><title>Home</title><path d="M4.21,44.86a4.14,4.14,0,0,1,.64-.78L7.2,41.82A6.1,6.1,0,0,0,4.21,44.86Z"/><path d="M124.21,119c-.63-3.43-1.23-11.09-1.51-67.67v-.89a4.67,4.67,0,0,0,0-.52v0c.08-2,.09-4.7-1.37-5.86C103.6,30,88.51,19.62,70.63,2A5.34,5.34,0,0,0,69.28.88a3.94,3.94,0,0,0-5.2.2C44.2,18.68,27.23,27.16,7.2,41.82a22.77,22.77,0,0,0-2.35,2.26,4.14,4.14,0,0,0-.64.78A6.54,6.54,0,0,0,3.67,47v.06a7.32,7.32,0,0,0,0,1.32c.76,6.6,1.22,64,.84,71.59a6.78,6.78,0,0,0,1,4,6.92,6.92,0,0,0,5.73,3.55c2.93.16,19.06.26,37.85.32a3.79,3.79,0,0,0,1.65-1.06,4.39,4.39,0,0,0,1.07-2.62,150.35,150.35,0,0,0,.31-21.94c.06-5.56.12-9.44.19-10.79A4.84,4.84,0,0,1,55,87.35a4.62,4.62,0,0,1,2.91-.76c7.05.35,3.69,0,12.36-.94A4.22,4.22,0,0,1,75,88.77a4.51,4.51,0,0,1,.4,1.87c0,.2,0,.41,0,.62-.27,2.26.49,12.85.28,26.67h.13c-.1,1.41-.2,2.93-.3,4.57a4,4,0,0,0,.28,1.85A4.2,4.2,0,0,0,80,128a0,0,0,0,0,0,0l14.06,0,22.44,0a6.81,6.81,0,0,0,4.65-1.77A7,7,0,0,0,124.21,119Z"/></svg>