<svg id="Lag_1" data-name="Lag 1" xmlns="http://www.w3.org/2000/svg" viewBox="0 0 128 128"><title>Indstilling</title><path d="M127.83,63.63c-1.52-5.5-3.31-11-5-16.32-1-3.2-2.08-6.4-3.07-9.62a4.85,4.85,0,0,0-.55-1.15h0a4.28,4.28,0,0,0-3.6-3.35,3.34,3.34,0,0,0-.83-.26c-3.8-.67-7.52-1.52-11.61-2.47-.1-3.34-.21-6.69-.33-10a3.52,3.52,0,0,0-.14-.83,3.3,3.3,0,0,0-1.56-2.39A78,78,0,0,0,82.2,8.29a3.33,3.33,0,0,0-2.29.07,3.5,3.5,0,0,0-1.6.82c-1.13,1-2.26,2.07-3.37,3.12-2-2.43-4.11-5-6.08-7.61a3.11,3.11,0,0,0-.59-.61,4.28,4.28,0,0,0-4.61-1.71h0a5,5,0,0,0-1.28,0C59.06,3,55.73,3.48,52.4,4c-5.52.85-11.24,1.73-16.83,2.85a4.13,4.13,0,0,0-3.42,3.53,4.2,4.2,0,0,0-.43,1.2l-.31,1.49c-.55,2.73-1.13,5.53-1.57,8.35-4-.19-8.19-.5-12.71-1a3.15,3.15,0,0,0-3.55,2.71c0,.05-.05.12-.08.18A163,163,0,0,1,5,40.85a3.41,3.41,0,0,0,.36,3.91,3.51,3.51,0,0,0,.38.59c1.69,2.14,3.44,4.43,5.32,7C8.63,54.07,6.25,56,4,57.78l-1.29,1a4.51,4.51,0,0,0-.88.92A4.15,4.15,0,0,0,.17,64.37c1.53,5.49,3.32,11,5,16.32,1,3.2,2.09,6.4,3.07,9.61a4.67,4.67,0,0,0,.55,1.15h0a4.28,4.28,0,0,0,3.6,3.35,3.48,3.48,0,0,0,.83.26c3.55.63,7.12,1.43,10.75,2.27-.08,1.2-.16,2.41-.25,3.61-.19,2.73-.38,5.45-.61,8.18a3.14,3.14,0,0,0,1.76,3.22,1.4,1.4,0,0,0,.26.16,87.72,87.72,0,0,0,17.71,7.17,3.42,3.42,0,0,0,.71.13,3.25,3.25,0,0,0,2.27-.52l5.72-3.73.88-.59c2.31,2.77,4.55,5.5,6.68,8.33a3.5,3.5,0,0,0,.6.62,4.19,4.19,0,0,0,3.48,1.84,4.77,4.77,0,0,0,1.12-.14h0a4.2,4.2,0,0,0,1.27,0c3.32-.57,6.64-1.08,10-1.6,5.53-.85,11.24-1.73,16.84-2.86a4.12,4.12,0,0,0,3.42-3.52,4.22,4.22,0,0,0,.42-1.19l.31-1.5c.53-2.6,1.08-5.27,1.52-8a54.21,54.21,0,0,0,11,.3,3.54,3.54,0,0,0,1.46-.44,3.39,3.39,0,0,0,1.2-.92c4-4.82,9-11.36,11.62-19.25a4.39,4.39,0,0,0-.91-3.93,44.81,44.81,0,0,1-5.54-7.06c2.47-1.74,4.85-3.63,7.16-5.46l1.28-1a4.05,4.05,0,0,0,.88-.92A4.14,4.14,0,0,0,127.83,63.63ZM67.49,85.91a30,30,0,0,1-4.56.34c-10.74,0-22.33-5.44-24-17.59-1.32-9.48,2.75-17.84,11.16-23a3.56,3.56,0,0,1,.69-.48,25.24,25.24,0,0,1,3-1.4c.77-.33,1.5-.62,2.22-.87a3.7,3.7,0,0,1,1-.2,30.29,30.29,0,0,1,8-1c11.7,0,20.88,6.4,23.41,16.32a20.58,20.58,0,0,1-3.08,16.64A26.19,26.19,0,0,1,67.49,85.91Z"/></svg>