<svg id="Lag_1" data-name="Lag 1" xmlns="http://www.w3.org/2000/svg" viewBox="0 0 128 128"><title>Menu Burger</title><path d="M127,11a4.77,4.77,0,0,0-.76-2.91,4.87,4.87,0,0,0-4.14-2.61C113.86,5,10.27,5,5.87,5A4.66,4.66,0,0,0,2.44,6.37,5,5,0,0,0,.1,11.66c1.14,6,.69,3.39.73,11A5.33,5.33,0,0,0,1,23.92,5,5,0,0,0,5.73,28.6c3.18.19,21.15.38,42,.6,30.75.32,70,.73,74.65,1.28a4.64,4.64,0,0,0,.63,0,4.32,4.32,0,0,0,1.86-.4A4.21,4.21,0,0,0,128,25.35C127,16.69,126.67,18,127,11Z"/><path d="M127,57.23a4.77,4.77,0,0,0-.76-2.91,4.87,4.87,0,0,0-4.14-2.61c-8.27-.45-111.86-.47-116.26-.47a4.66,4.66,0,0,0-3.43,1.37A5,5,0,0,0,.1,57.9c1.14,6,.69,3.39.73,11A5.33,5.33,0,0,0,1,70.16a5,5,0,0,0,4.74,4.68c3.18.19,21.15.38,42,.6,30.75.32,70,.73,74.65,1.28a4.64,4.64,0,0,0,.63,0,4.32,4.32,0,0,0,1.86-.4A4.21,4.21,0,0,0,128,71.59C127,62.93,126.67,64.28,127,57.23Z"/><path d="M127,103.47a4.77,4.77,0,0,0-.76-2.91A4.87,4.87,0,0,0,122.13,98c-8.27-.45-111.86-.47-116.26-.47a4.66,4.66,0,0,0-3.43,1.37A5,5,0,0,0,.1,104.14c1.14,6,.69,3.39.73,11A5.33,5.33,0,0,0,1,116.4a5,5,0,0,0,4.74,4.68c3.18.19,21.15.38,42,.6,30.75.32,70,.73,74.65,1.28a4.64,4.64,0,0,0,.63,0,4.32,4.32,0,0,0,1.86-.4,4.21,4.21,0,0,0,3.12-4.77C127,109.16,126.67,110.52,127,103.47Z"/></svg>