<svg id="Lag_1" data-name="Lag 1" xmlns="http://www.w3.org/2000/svg" viewBox="0 0 128 128"><title>Plus</title><path d="M123.25,53.11,122.9,53l-.29-.25a5.73,5.73,0,0,0-3.85-1.32L76,53l.09-13.9c-.21-4.52-.37-9-.53-13.57-.23-6.29-.46-12.79-.84-19.17a6.22,6.22,0,0,0-5.61-6L68.76.32a6.64,6.64,0,0,0-2-.32H54.59a5.4,5.4,0,0,0-5.33,3.38L49,3.92l-.45.37a5.41,5.41,0,0,0-1.93,4.49c.11,11.65,1.31,32.27,2.46,42.09l.3,2.5-21.47.84L9.4,55.56a6.51,6.51,0,0,0-2.85.87l-.28.16-.3.08a6.32,6.32,0,0,0-4.68,6v1.72A6,6,0,0,0,2,67.19l.24.44,0,.5A38,38,0,0,1,3,75.7a5.55,5.55,0,0,0,4.46,5.69l.29.09a6.45,6.45,0,0,0,2.33.43l40.79-1,0,3.36c.08,3.65.21,16.3.33,20,.2,5.75.4,11.69.43,17.55a5.58,5.58,0,0,0,4.36,5.67l.28.1a6.46,6.46,0,0,0,2.44.46H72.09a5.62,5.62,0,0,0,4.14-1.6l.47-.47a5.6,5.6,0,0,0,1.61-4.15c0-9-.07-29.64-.52-40.08l-.11-2.51h41.95c3.91,0,5.59-2.81,5.86-5.44l.06-.55.29-.47a6,6,0,0,0,.87-3.21v-11A5.39,5.39,0,0,0,123.25,53.11Z"/></svg>