<svg id="Lag_1" data-name="Lag 1" xmlns="http://www.w3.org/2000/svg" viewBox="0 0 128 128"><title>Profil</title><path d="M48.26,43.24a25.84,25.84,0,0,0,15,4.95,27.36,27.36,0,0,0,19-8.09c1.44-1.39,2.94-3,3.35-3.51A4.6,4.6,0,0,0,86,35.9c5.17-9.76,4.3-19.87-2.37-27.71-1.59-1.87-3-3.46-3.51-3.95a3.66,3.66,0,0,0-.91-.63A30.46,30.46,0,0,0,65.18,0c-6.37,0-12.53,2.26-18.3,6.72a3.71,3.71,0,0,0-.63.62c-.41.54-1.75,2.36-2.94,4.11C35.65,22.67,37.69,35.75,48.26,43.24Z"/><path d="M108.86,81.63c0-.71,0-1.41,0-2.12,0-.28,0-.56,0-.84s0-.56,0-.84c0-.93-.06-1.86-.11-2.78,0-.29,0-.56-.07-.85s0-.56-.06-.84c-.05-.71-.09-1.43-.16-2.14,0-.27-.06-.55-.09-.82a33.91,33.91,0,0,0-.62-4c-.07-.33-.17-.65-.26-1a16.78,16.78,0,0,0-.86-2.44,11.92,11.92,0,0,0-1.74-2.8,10.68,10.68,0,0,0-1.41-1.35c-.27-.22-.55-.45-.85-.66s-.55-.37-.84-.54a19,19,0,0,0-1.89-1,17.68,17.68,0,0,0-3.18-1.11,13.74,13.74,0,0,0-2.26-.39c-.92-.06-1.86-.08-2.79-.1h-.83c-.29,0-.57,0-.86,0l-3.13,0-.84,0-.84,0c-1.39,0-2.78.06-4.15,0l-7.24-.07L66.49,55c-9.62-.08-9.24-.08-18.85.35-5.4.24-10.78.62-16.16,1.19a3.19,3.19,0,0,0-1.34.14,17,17,0,0,0-10.66,9.12,4.17,4.17,0,0,0-.36,1.27,3.35,3.35,0,0,0-.36,1.46c-.31,15.62-1,31.21,0,46.82a3.17,3.17,0,0,0,1.76,2.73,2.81,2.81,0,0,0,2,.77c6.17,0,12.35,0,18.52-.32,0,2.07,0,4,0,5.66a3.26,3.26,0,0,0,.34,1.48,2.78,2.78,0,0,0,2.75,1.91c17.47,0,24.93.36,42.4.38,2.73,0,3.56-3,2.48-4.74,0-.69,0-1.42,0-2.18,5-.25,10-.29,15-.29a2.89,2.89,0,0,0,1.89-.65,3.15,3.15,0,0,0,3.81-3.12c0-10.22-.43-20.41-.75-30.63C108.94,84.8,108.9,83.21,108.86,81.63Z"/></svg>