<svg id="Lag_1" data-name="Lag 1" xmlns="http://www.w3.org/2000/svg" viewBox="0 0 128 128"><title>Søg</title><path d="M116.69,114.72C107.11,101,96.3,88.09,87.12,74.06A44.24,44.24,0,0,0,99.27,43.59c0-7.35-3.06-15.52-4.37-18.69C88.43,9.31,73.62,0,55.28,0A58,58,0,0,0,35.19,3.69C17.69,10.21,10.3,29.56,10.73,45.84,11.34,68.69,31.56,88,54.88,88a44.25,44.25,0,0,0,15.78-2.9c4.29,9.11,8.84,18.13,13.55,27,2.31,4.37,4.08,9.61,6.94,13.64,4.65,6.55,19.57-2.93,23.7-6.38l.06-.05C116.76,118.71,118.11,116.75,116.69,114.72ZM54.89,72.51a28.9,28.9,0,1,1,28.89-28.9A28.93,28.93,0,0,1,54.89,72.51Z"/></svg>